<svg xmlns="http://www.w3.org/2000/svg" width="21" height="18" viewBox="0 0 21 18"><g><g><g><g><path fill="#de213c" d="M10.398 6.302c-.82 0-1.339.458-1.339 1.29 0 .435.096 1.123.627 2.56l.35.952h.724l.35-.953c.519-1.424.628-2.124.628-2.559 0-.832-.531-1.29-1.34-1.29z"/></g><g><path fill="#de213c" d="M10.398 11.974a1.25 1.25 0 0 0-1.267 1.255c0 .7.555 1.242 1.267 1.242.712 0 1.267-.543 1.267-1.242 0-.7-.555-1.255-1.267-1.255z"/></g></g><g><path fill="none" stroke="#de213c" stroke-linecap="round" stroke-linejoin="round" stroke-miterlimit="20" stroke-width="1.2" d="M14.865 8.744v0l-4.467-7.738v0L5.93 8.744v0L1.463 16.48v0h8.935v0h8.935v0z"/></g></g></g></svg>