<svg xmlns="http://www.w3.org/2000/svg" width="12" height="16" viewBox="0 0 12 16"><g><g><path fill="#214578" d="M5.983 8.255A2.737 2.737 0 0 1 3.236 5.51a2.735 2.735 0 0 1 2.747-2.742 2.734 2.734 0 0 1 2.74 2.75 2.737 2.737 0 0 1-2.74 2.737zm5.442-3.75C10.936 2.216 9.52.776 7.267.158 7 .084 6.721.052 6.448 0h-.934c-.209.033-.419.06-.626.103-3.714.76-5.618 4.905-3.727 8.19 1.421 2.468 2.91 4.898 4.368 7.343.246.414.656.416.902.003 1.434-2.401 2.87-4.802 4.299-7.206.725-1.22.992-2.538.695-3.928z"/></g></g></svg>