<svg xmlns="http://www.w3.org/2000/svg" width="63" height="51" viewBox="0 0 63 51"><g><g><g><path fill="#fff" d="M30.438 34.465H8.803c-2.81 0-4.523-1.706-4.523-4.505 0-7.312-.002-14.624 0-21.936.001-2.76 1.723-4.477 4.491-4.477h43.33c2.77 0 4.492 1.716 4.493 4.475.001 7.332.002 14.663 0 21.995 0 2.72-1.735 4.447-4.462 4.448-7.23.002-14.463 0-21.694 0zM30.434 1.17c-7.33 0-14.659-.003-21.988.002-3.7.002-6.54 2.845-6.542 6.544-.004 7.53-.004 15.058 0 22.586.003 3.694 2.85 6.54 6.547 6.54 14.66.003 29.319.003 43.977 0 3.698 0 6.54-2.844 6.541-6.545.005-7.529.003-15.058 0-22.586 0-.336-.002-.678-.063-1.005-.635-3.43-3.173-5.535-6.662-5.535h-21.81z"/><path fill="none" stroke="#214578" stroke-linecap="round" stroke-linejoin="round" stroke-miterlimit="20" stroke-width=".37" d="M30.438 34.465H8.803c-2.81 0-4.523-1.706-4.523-4.505 0-7.312-.002-14.624 0-21.936.001-2.76 1.723-4.477 4.491-4.477h43.33c2.77 0 4.492 1.716 4.493 4.475.001 7.332.002 14.663 0 21.995 0 2.72-1.735 4.447-4.462 4.448-7.23.002-14.463 0-21.694 0zM30.434 1.17c-7.33 0-14.659-.003-21.988.002-3.7.002-6.54 2.845-6.542 6.544-.004 7.53-.004 15.058 0 22.586.003 3.694 2.85 6.54 6.547 6.54 14.66.003 29.319.003 43.977 0 3.698 0 6.54-2.844 6.541-6.545.005-7.529.003-15.058 0-22.586 0-.336-.002-.678-.063-1.005-.635-3.43-3.173-5.535-6.662-5.535h-21.81z"/></g><g><path fill="#fff" d="M32.785 41.626v2.305h-1.118v-2.305zm18.701 2.351zm0 0c-.54.82-1.215 1.177-2.028 1.18-4.696.015-9.392.005-14.088.001-.036 0-.072-.022-.142-.046v-4.668c.147-.01.314-.033.483-.033 4.498-.002 8.997 0 13.494-.002.92 0 1.691.286 2.27 1.191h-.709c-3.586 0-7.173-.002-10.759.003-.664.001-1.144.391-1.237.97-.095.581.209 1.144.757 1.328.218.072.466.073.702.073 3.506.004 7.013.003 10.52.003zm-17.24 3.567c5.07.001 10.14.002 15.21-.003.295 0 .596-.015.884-.075 2.521-.529 4.143-2.746 3.86-5.259-.268-2.383-2.337-4.172-4.838-4.173-5.01-.003-10.022 0-15.032 0-.989 0-1.282.215-1.587 1.188-.76 0-1.53-.01-2.3.004-.719.013-1.172.477-1.192 1.2-.01.384-.001.77-.001 1.174h-.808c-4.04 0-8.08 0-12.122.002-.908 0-1.466.601-1.329 1.411.105.611.596.963 1.363.963 4.08.002 8.16.001 12.24.001h.656c0 .401-.003.716 0 1.031.006.907.438 1.341 1.345 1.347.712.004 1.425 0 2.172 0 .25.931.577 1.19 1.478 1.19z"/><path fill="none" stroke="#214578" stroke-linecap="round" stroke-linejoin="round" stroke-miterlimit="20" stroke-width=".37" d="M32.785 41.626v2.305h-1.118v-2.305zm18.701 2.351h0s0 0 0 0zm0 0c-.54.82-1.215 1.177-2.028 1.18-4.696.015-9.392.005-14.088.001-.036 0-.072-.022-.142-.046v-4.668c.147-.01.314-.033.483-.033 4.498-.002 8.997 0 13.494-.002.92 0 1.691.286 2.27 1.191h-.709c-3.586 0-7.173-.002-10.759.003-.664.001-1.144.391-1.237.97-.095.581.209 1.144.757 1.328.218.072.466.073.702.073 3.506.004 7.013.003 10.52.003zm-17.24 3.567c5.07.001 10.14.002 15.21-.003.295 0 .596-.015.884-.075 2.521-.529 4.143-2.746 3.86-5.259-.268-2.383-2.337-4.172-4.838-4.173-5.01-.003-10.022 0-15.032 0-.989 0-1.282.215-1.587 1.188-.76 0-1.53-.01-2.3.004-.719.013-1.172.477-1.192 1.2-.01.384-.001.77-.001 1.174h-.808c-4.04 0-8.08 0-12.122.002-.908 0-1.466.601-1.329 1.411.105.611.596.963 1.363.963 4.08.002 8.16.001 12.24.001h.656c0 .401-.003.716 0 1.031.006.907.438 1.341 1.345 1.347.712.004 1.425 0 2.172 0 .25.931.577 1.19 1.478 1.19z"/></g><g><path fill="#fff" d="M7.247 42.57c.27.363.586.61.551.788-.045.232-.369.41-.572.611-.185-.199-.504-.388-.52-.6-.017-.205.277-.434.541-.799zm-2.966.807a2.943 2.943 0 0 0 2.965 2.978 2.944 2.944 0 0 0 2.978-2.966 2.941 2.941 0 0 0-2.965-2.978 2.942 2.942 0 0 0-2.978 2.966z"/><path fill="none" stroke="#214578" stroke-linecap="round" stroke-linejoin="round" stroke-miterlimit="20" stroke-width=".37" d="M7.247 42.57c.27.363.586.61.551.788-.045.232-.369.41-.572.611-.185-.199-.504-.388-.52-.6-.017-.205.277-.434.541-.799zm-2.966.807a2.943 2.943 0 0 0 2.965 2.978 2.944 2.944 0 0 0 2.978-2.966 2.941 2.941 0 0 0-2.965-2.978 2.942 2.942 0 0 0-2.978 2.966z"/></g><g><path fill="#fff" d="M13.79 48.73c.002.692-.456 1.182-1.112 1.192-.683.01-1.157-.49-1.149-1.212.008-.688.48-1.168 1.14-1.163.66.005 1.12.491 1.122 1.183z"/><path fill="none" stroke="#214578" stroke-linecap="round" stroke-linejoin="round" stroke-miterlimit="20" stroke-width=".37" d="M13.79 48.73c.002.692-.456 1.182-1.112 1.192-.683.01-1.157-.49-1.149-1.212.008-.688.48-1.168 1.14-1.163.66.005 1.12.491 1.122 1.183z"/></g><g><path fill="#fff" d="M59.65 39.982c-.003-.693.454-1.185 1.108-1.196.663-.01 1.141.465 1.153 1.15.014.723-.453 1.228-1.136 1.225-.659-.003-1.122-.488-1.125-1.179z"/><path fill="none" stroke="#214578" stroke-linecap="round" stroke-linejoin="round" stroke-miterlimit="20" stroke-width=".37" d="M59.65 39.982c-.003-.693.454-1.185 1.108-1.196.663-.01 1.141.465 1.153 1.15.014.723-.453 1.228-1.136 1.225-.659-.003-1.122-.488-1.125-1.179z"/></g><g><path fill="#fff" d="M30.32 29.36c-.159-.68-.347-1.356-.47-2.043-.13-.727-.5-1.133-1.236-1.327-.64-.169-1.26-.46-1.848-.777-.604-.325-1.139-.36-1.714.044-.484.342-.998.642-1.504.952-.117.072-.254.111-.496.213.067-.238.077-.349.127-.437.14-.239.3-.466.443-.703.975-1.598 1.27-1.498.243-3.299-.212-.37-.337-.803-.434-1.223-.153-.663-.55-1.019-1.2-1.148a55.773 55.773 0 0 1-1.677-.368c-.16-.037-.313-.103-.628-.21.282-.134.406-.215.541-.252.227-.062.461-.118.695-.14 1.346-.127 2.317-.648 2.518-2.153.054-.409.328-.802.552-1.172.36-.595.347-1.142-.053-1.712-.329-.469-.618-.965-.92-1.454-.077-.123-.13-.26-.259-.522.25.066.38.071.474.13.556.341 1.11.687 1.654 1.048.497.328.971.321 1.507.065a22.47 22.47 0 0 1 2.18-.898c.564-.2.887-.56 1.007-1.133.121-.579.245-1.158.378-1.735.036-.157.11-.306.166-.458l.155.001c.084.287.18.571.25.862.104.441.19.887.281 1.332.123.6.474.95 1.064 1.147.726.244 1.434.55 2.124.881.511.246.975.275 1.455-.035.534-.342 1.068-.68 1.606-1.014.122-.075.26-.126.522-.252-.073.258-.084.386-.144.483a43.82 43.82 0 0 1-1.017 1.603c-.36.534-.349 1.036-.052 1.611.332.644.62 1.323.832 2.016.2.65.583.994 1.23 1.123.707.14 1.41.313 2.113.472l.021.171c-.141.064-.279.152-.427.187-.596.14-1.196.262-1.795.39-.599.125-.942.48-1.135 1.073-.23.71-.517 1.406-.853 2.072-.28.556-.292 1.043.051 1.558.34.511.661 1.033.983 1.554.074.12.119.255.176.382l-.11.12c-.14-.07-.287-.127-.419-.209-.538-.333-1.072-.672-1.607-1.01-.46-.294-.91-.266-1.401-.036a22.19 22.19 0 0 1-2.182.9c-.59.202-.918.571-1.043 1.166-.15.724-.32 1.443-.481 2.164h-.243zM23.244 8.893c-.904-.04-1.239.544-1.663.963-1.62 1.6-1.648 1.63-.389 3.496.515.764.77 1.415.242 2.284-.214.351-.382.575-.789.65-.659.121-1.314.275-1.964.445-.669.175-.955.556-.963 1.235-.008.634-.003 1.268-.002 1.902.002.914.3 1.287 1.194 1.487.616.138 1.246.23 1.85.413.234.071.453.304.607.516.645.887.427 1.705-.256 2.466-.039.043-.063.101-.094.151-1.033 1.631-1.028 1.67.352 3.05 1.532 1.532 1.561 1.574 3.364.331.805-.555 1.494-.794 2.392-.254.32.192.511.355.583.713.138.696.292 1.391.47 2.08.151.584.547.9 1.162.905.733.006 1.466.007 2.2 0 .613-.006 1-.328 1.16-.91.108-.4.245-.804.271-1.213.065-1.024.54-1.638 1.558-1.893.32-.08.535-.1.805.081.574.387 1.162.754 1.754 1.114.598.363 1.116.306 1.622-.162.205-.188.393-.393.591-.586 1.537-1.492 1.734-1.59.381-3.504-.537-.76-.762-1.416-.24-2.284.213-.357.39-.566.793-.642a28.669 28.669 0 0 0 2.02-.463c.583-.154.898-.55.901-1.166.005-.733.005-1.467 0-2.2-.003-.589-.309-.973-.857-1.142-.433-.133-.878-.28-1.325-.308-.984-.062-1.562-.512-1.808-1.486-.083-.329-.153-.56.055-.859.394-.568.757-1.16 1.116-1.752.362-.598.31-1.124-.168-1.62-.479-.502-.969-.994-1.47-1.472-.476-.452-1.013-.508-1.574-.179-.358.211-.733.408-1.047.675-.716.61-1.41.763-2.278.244-.357-.213-.566-.392-.642-.79a28.67 28.67 0 0 0-.448-1.965c-.175-.666-.559-.953-1.239-.96a90.143 90.143 0 0 0-2.08 0c-.673.008-1.055.3-1.23.97-.17.65-.325 1.304-.445 1.964-.075.408-.3.573-.65.787-.872.532-1.566.338-2.278-.258-.286-.239-.621-.423-.95-.604-.237-.129-.499-.21-.594-.25z"/><path fill="none" stroke="#214578" stroke-linecap="round" stroke-linejoin="round" stroke-miterlimit="20" stroke-width=".37" d="M30.32 29.36c-.159-.68-.347-1.356-.47-2.043-.13-.727-.5-1.133-1.236-1.327-.64-.169-1.26-.46-1.848-.777-.604-.325-1.139-.36-1.714.044-.484.342-.998.642-1.504.952-.117.072-.254.111-.496.213.067-.238.077-.349.127-.437.14-.239.3-.466.443-.703.975-1.598 1.27-1.498.243-3.299-.212-.37-.337-.803-.434-1.223-.153-.663-.55-1.019-1.2-1.148a55.773 55.773 0 0 1-1.677-.368c-.16-.037-.313-.103-.628-.21.282-.134.406-.215.541-.252.227-.062.461-.118.695-.14 1.346-.127 2.317-.648 2.518-2.153.054-.409.328-.802.552-1.172.36-.595.347-1.142-.053-1.712-.329-.469-.618-.965-.92-1.454-.077-.123-.13-.26-.259-.522.25.066.38.071.474.13.556.341 1.11.687 1.654 1.048.497.328.971.321 1.507.065a22.47 22.47 0 0 1 2.18-.898c.564-.2.887-.56 1.007-1.133.121-.579.245-1.158.378-1.735.036-.157.11-.306.166-.458l.155.001c.084.287.18.571.25.862.104.441.19.887.281 1.332.123.6.474.95 1.064 1.147.726.244 1.434.55 2.124.881.511.246.975.275 1.455-.035.534-.342 1.068-.68 1.606-1.014.122-.075.26-.126.522-.252-.073.258-.084.386-.144.483a43.82 43.82 0 0 1-1.017 1.603c-.36.534-.349 1.036-.052 1.611.332.644.62 1.323.832 2.016.2.65.583.994 1.23 1.123.707.14 1.41.313 2.113.472l.021.171c-.141.064-.279.152-.427.187-.596.14-1.196.262-1.795.39-.599.125-.942.48-1.135 1.073-.23.71-.517 1.406-.853 2.072-.28.556-.292 1.043.051 1.558.34.511.661 1.033.983 1.554.074.12.119.255.176.382l-.11.12c-.14-.07-.287-.127-.419-.209-.538-.333-1.072-.672-1.607-1.01-.46-.294-.91-.266-1.401-.036a22.19 22.19 0 0 1-2.182.9c-.59.202-.918.571-1.043 1.166-.15.724-.32 1.443-.481 2.164h-.243zM23.244 8.893c-.904-.04-1.239.544-1.663.963-1.62 1.6-1.648 1.63-.389 3.496.515.764.77 1.415.242 2.284-.214.351-.382.575-.789.65-.659.121-1.314.275-1.964.445-.669.175-.955.556-.963 1.235-.008.634-.003 1.268-.002 1.902.002.914.3 1.287 1.194 1.487.616.138 1.246.23 1.85.413.234.071.453.304.607.516.645.887.427 1.705-.256 2.466-.039.043-.063.101-.094.151-1.033 1.631-1.028 1.67.352 3.05 1.532 1.532 1.561 1.574 3.364.331.805-.555 1.494-.794 2.392-.254.32.192.511.355.583.713.138.696.292 1.391.47 2.08.151.584.547.9 1.162.905.733.006 1.466.007 2.2 0 .613-.006 1-.328 1.16-.91.108-.4.245-.804.271-1.213.065-1.024.54-1.638 1.558-1.893.32-.08.535-.1.805.081.574.387 1.162.754 1.754 1.114.598.363 1.116.306 1.622-.162.205-.188.393-.393.591-.586 1.537-1.492 1.734-1.59.381-3.504-.537-.76-.762-1.416-.24-2.284.213-.357.39-.566.793-.642a28.669 28.669 0 0 0 2.02-.463c.583-.154.898-.55.901-1.166.005-.733.005-1.467 0-2.2-.003-.589-.309-.973-.857-1.142-.433-.133-.878-.28-1.325-.308-.984-.062-1.562-.512-1.808-1.486-.083-.329-.153-.56.055-.859.394-.568.757-1.16 1.116-1.752.362-.598.31-1.124-.168-1.62-.479-.502-.969-.994-1.47-1.472-.476-.452-1.013-.508-1.574-.179-.358.211-.733.408-1.047.675-.716.61-1.41.763-2.278.244-.357-.213-.566-.392-.642-.79a28.67 28.67 0 0 0-.448-1.965c-.175-.666-.559-.953-1.239-.96a90.143 90.143 0 0 0-2.08 0c-.673.008-1.055.3-1.23.97-.17.65-.325 1.304-.445 1.964-.075.408-.3.573-.65.787-.872.532-1.566.338-2.278-.258-.286-.239-.621-.423-.95-.604-.237-.129-.499-.21-.594-.25z"/></g><g><path fill="#fff" d="M18.62 9.524v2.305H6.653V9.524z"/><path fill="none" stroke="#214578" stroke-linecap="round" stroke-linejoin="round" stroke-miterlimit="20" stroke-width=".37" d="M18.62 9.524v2.305H6.653v0-2.305 0z"/></g><g><path fill="#fff" d="M54.19 26.183v2.304h-8.247v-2.304z"/><path fill="none" stroke="#214578" stroke-linecap="round" stroke-linejoin="round" stroke-miterlimit="20" stroke-width=".37" d="M54.19 26.183v2.304h-8.247v0-2.304 0z"/></g><g><path fill="#fff" d="M45.922 32.045V29.74h8.246v2.306z"/><path fill="none" stroke="#214578" stroke-linecap="round" stroke-linejoin="round" stroke-miterlimit="20" stroke-width=".37" d="M45.922 32.045v0-2.306 0h8.246v2.306z"/></g><g><path fill="#fff" d="M6.641 8.272V5.965h7.213v2.307z"/><path fill="none" stroke="#214578" stroke-linecap="round" stroke-linejoin="round" stroke-miterlimit="20" stroke-width=".37" d="M6.641 8.272v0-2.307 0h7.213v2.307z"/></g><g><path fill="#fff" d="M50.604 24.928h-4.676v-2.326h4.676z"/><path fill="none" stroke="#214578" stroke-linecap="round" stroke-linejoin="round" stroke-miterlimit="20" stroke-width=".37" d="M50.604 24.928v0h-4.676v0-2.326 0h4.676v0z"/></g><g><path fill="#fff" d="M6.682 15.41V13.1h2.32v2.31z"/><path fill="none" stroke="#214578" stroke-linecap="round" stroke-linejoin="round" stroke-miterlimit="20" stroke-width=".37" d="M6.682 15.41v0-2.31 0h2.32v2.31z"/></g><g><path fill="#fff" d="M12.563 15.408h-2.197v-2.304h2.197z"/><path fill="none" stroke="#214578" stroke-linecap="round" stroke-linejoin="round" stroke-miterlimit="20" stroke-width=".37" d="M12.563 15.408v0h-2.197v0-2.304 0h2.197v0z"/></g><g><path fill="#fff" d="M30.471 20.825c-1.048.014-1.853-.774-1.854-1.815 0-1.043.8-1.834 1.846-1.823 1.015.01 1.79.796 1.793 1.815.002 1.02-.772 1.81-1.785 1.823zm.017-6.078c-2.304-.038-4.29 1.915-4.309 4.238-.018 2.288 1.9 4.24 4.208 4.28 2.305.042 4.292-1.913 4.307-4.238.016-2.294-1.898-4.242-4.206-4.28z"/><path fill="none" stroke="#214578" stroke-linecap="round" stroke-linejoin="round" stroke-miterlimit="20" stroke-width=".37" d="M30.471 20.825c-1.048.014-1.853-.774-1.854-1.815 0-1.043.8-1.834 1.846-1.823 1.015.01 1.79.796 1.793 1.815.002 1.02-.772 1.81-1.785 1.823zm.017-6.078c-2.304-.038-4.29 1.915-4.309 4.238-.018 2.288 1.9 4.24 4.208 4.28 2.305.042 4.292-1.913 4.307-4.238.016-2.294-1.898-4.242-4.206-4.28z"/></g></g></g></svg>