<svg xmlns="http://www.w3.org/2000/svg" width="18" height="18" viewBox="0 0 18 18"><g><g><g><path fill="#de213c" d="M9.4 16.524c-3.902.003-7.106-3.201-7.102-7.104.004-3.91 3.206-7.107 7.107-7.1 3.907.01 7.082 3.185 7.095 7.097.013 3.896-3.19 7.104-7.1 7.107zM17.9 8.86c-.044-.306-.08-.613-.132-.916a8.203 8.203 0 0 0-1.808-3.926c-1.3-1.566-2.95-2.585-4.955-2.939C7.97.544 5.35 1.393 3.202 3.61a7.964 7.964 0 0 0-2.149 4.204c-.468 2.6.116 4.952 1.784 7.006 1.173 1.443 2.678 2.393 4.485 2.841.448.111.912.155 1.369.231.048.009.096.02.144.031h1.129c.305-.043.611-.08.914-.131a8.228 8.228 0 0 0 4.125-1.979c1.459-1.285 2.372-2.89 2.748-4.796.057-.287.077-.58.116-.87.007-.053.021-.107.032-.16V8.86z"/></g><g><path fill="#de213c" d="M8.695 6.579H9.9c.209 0 .42-.01.629.007.59.05 1 .497.998 1.072a1.047 1.047 0 0 1-1.016 1.058c-.6.025-1.203.005-1.817.005zm.187 3.54h1.61c1.348-.002 2.47-1.144 2.448-2.49a2.483 2.483 0 0 0-2.488-2.455c-.797-.002-1.593 0-2.39 0-.497 0-.785.285-.785.78v2.771h-.704a.698.698 0 0 0-.714.695.698.698 0 0 0 .71.7h.697v.731h-.672c-.418.001-.73.296-.735.693-.005.394.308.7.724.702.225.002.45.001.694.001 0 .253-.005.488 0 .724.014.5.502.833.957.65.305-.124.447-.365.448-.69.002-.226.001-.45.001-.684.474 0 .921.001 1.369-.002a.949.949 0 0 0 .261-.029.68.68 0 0 0 .485-.768.684.684 0 0 0-.685-.597c-.47-.002-.94 0-1.42 0v-.731z"/></g></g></g></svg>