<svg xmlns="http://www.w3.org/2000/svg" width="53" height="60" viewBox="0 0 53 60"><g><g><g><path fill="#fff" d="M39.263 56.316V21.91h9.44v34.407zm11.86-17.2V20.927c0-1.035-.405-1.444-1.429-1.444H38.281c-1.025 0-1.426.408-1.426 1.444v36.315c0 1.076.392 1.474 1.457 1.475h11.294c1.145 0 1.518-.376 1.518-1.535V39.115z"/><path fill="none" stroke="#214578" stroke-linecap="round" stroke-linejoin="round" stroke-miterlimit="20" stroke-width=".37" d="M39.263 56.316V21.91h9.44v34.407zm11.86-17.2V20.927c0-1.035-.405-1.444-1.429-1.444H38.281c-1.025 0-1.426.408-1.426 1.444v36.315c0 1.076.392 1.474 1.457 1.475h11.294c1.145 0 1.518-.376 1.518-1.535V39.115z"/></g><g><path fill="#fff" d="M21.423 56.314V34.985h9.444v21.33zM19.016 45.61v11.708c.001.985.42 1.4 1.412 1.4 3.804.002 7.608.002 11.413.001 1.033 0 1.443-.407 1.443-1.429V33.992c0-1.025-.408-1.429-1.442-1.429-3.784-.002-7.569 0-11.353 0-1.078 0-1.473.39-1.473 1.457v11.59z"/><path fill="none" stroke="#214578" stroke-linecap="round" stroke-linejoin="round" stroke-miterlimit="20" stroke-width=".37" d="M21.423 56.314V34.985h9.444v21.33zM19.016 45.61v11.708c.001.985.42 1.4 1.412 1.4 3.804.002 7.608.002 11.413.001 1.033 0 1.443-.407 1.443-1.429V33.992c0-1.025-.408-1.429-1.442-1.429-3.784-.002-7.569 0-11.353 0-1.078 0-1.473.39-1.473 1.457v11.59z"/></g><g><path fill="#fff" d="M3.583 43.292h9.441V56.3H3.583zm11.863-1.01c0-.983-.42-1.396-1.416-1.396-3.822-.002-7.647-.002-11.47 0-.953 0-1.38.424-1.38 1.37-.003 5.031-.003 10.063 0 15.094 0 .942.43 1.367 1.383 1.367 3.824.002 7.648.002 11.472 0 .99 0 1.41-.417 1.411-1.4.002-2.497.001-4.992.001-7.488v-7.548z"/><path fill="none" stroke="#214578" stroke-linecap="round" stroke-linejoin="round" stroke-miterlimit="20" stroke-width=".37" d="M3.583 43.292h9.441V56.3H3.583zm11.863-1.01c0-.983-.42-1.396-1.416-1.396-3.822-.002-7.647-.002-11.47 0-.953 0-1.38.424-1.38 1.37-.003 5.031-.003 10.063 0 15.094 0 .942.43 1.367 1.383 1.367 3.824.002 7.648.002 11.472 0 .99 0 1.41-.417 1.411-1.4.002-2.497.001-4.992.001-7.488v-7.548z"/></g><g><path fill="#fff" d="M45.293 10.47c-.455-.175-.88-.464-1.303-.462-.426.001-.85.292-1.308.467.494-.978.228-1.767-.757-2.377 1.137.131 1.797-.34 2.063-1.478.264 1.143.931 1.607 2.057 1.5-1.018.592-1.222 1.38-.752 2.35zm-2.475-7.932c-.328.91-.652 1.821-.948 2.741-.101.317-.249.427-.586.421-.95-.014-1.9 0-2.85.03-.604.018-1.068.271-1.248.9-.176.605.095 1.028.555 1.377.742.561 1.474 1.137 2.23 1.678.292.21.347.397.231.74-.305.895-.568 1.805-.833 2.714-.162.562-.069 1.074.435 1.426.5.347 1.002.278 1.488-.064.777-.546 1.568-1.072 2.335-1.632.272-.198.467-.19.734.005.735.538 1.488 1.05 2.237 1.566.634.436 1.106.467 1.585.118.465-.339.593-.839.382-1.548-.249-.832-.48-1.67-.77-2.487-.157-.437-.044-.673.318-.925.699-.484 1.366-1.016 2.041-1.532.626-.477.804-.897.63-1.456-.185-.595-.592-.867-1.38-.886a66.025 66.025 0 0 0-2.673-.024c-.347.005-.523-.085-.633-.44-.28-.904-.616-1.79-.926-2.687-.192-.557-.547-.904-.949-.92-.786-.01-1.183.272-1.405.885z"/><path fill="none" stroke="#214578" stroke-linecap="round" stroke-linejoin="round" stroke-miterlimit="20" stroke-width=".37" d="M45.293 10.47c-.455-.175-.88-.464-1.303-.462-.426.001-.85.292-1.308.467.494-.978.228-1.767-.757-2.377 1.137.131 1.797-.34 2.063-1.478.264 1.143.931 1.607 2.057 1.5-1.018.592-1.222 1.38-.752 2.35zm-2.475-7.932c-.328.91-.652 1.821-.948 2.741-.101.317-.249.427-.586.421-.95-.014-1.9 0-2.85.03-.604.018-1.068.271-1.248.9-.176.605.095 1.028.555 1.377.742.561 1.474 1.137 2.23 1.678.292.21.347.397.231.74-.305.895-.568 1.805-.833 2.714-.162.562-.069 1.074.435 1.426.5.347 1.002.278 1.488-.064.777-.546 1.568-1.072 2.335-1.632.272-.198.467-.19.734.005.735.538 1.488 1.05 2.237 1.566.634.436 1.106.467 1.585.118.465-.339.593-.839.382-1.548-.249-.832-.48-1.67-.77-2.487-.157-.437-.044-.673.318-.925.699-.484 1.366-1.016 2.041-1.532.626-.477.804-.897.63-1.456-.185-.595-.592-.867-1.38-.886a66.025 66.025 0 0 0-2.673-.024c-.347.005-.523-.085-.633-.44-.28-.904-.616-1.79-.926-2.687-.192-.557-.547-.904-.949-.92-.786-.01-1.183.272-1.405.885z"/></g><g><path fill="#fff" d="M46.366 39.144c0 3.328-.003 6.655.003 9.983.001.53-.183.997-.683 1.128-.375.098-.892.068-1.205-.129-.267-.168-.47-.653-.472-.998-.027-6.695-.022-13.389-.017-20.084 0-.757.503-1.25 1.215-1.237.68.013 1.155.503 1.156 1.236.006 3.367.003 6.734.003 10.101z"/><path fill="none" stroke="#214578" stroke-linecap="round" stroke-linejoin="round" stroke-miterlimit="20" stroke-width=".37" d="M46.366 39.144c0 3.328-.003 6.655.003 9.983.001.53-.183.997-.683 1.128-.375.098-.892.068-1.205-.129-.267-.168-.47-.653-.472-.998-.027-6.695-.022-13.389-.017-20.084 0-.757.503-1.25 1.215-1.237.68.013 1.155.503 1.156 1.236.006 3.367.003 6.734.003 10.101z"/></g></g></g></svg>