<svg xmlns="http://www.w3.org/2000/svg" width="54" height="55" viewBox="0 0 54 55"><g><g><g><path fill="#fff" d="M7.15 8.175c1.128.075 2.226.17 3.325.22 5.625.253 10.863-1.072 15.702-3.934.6-.354.975-.352 1.547.054 2.764 1.96 5.891 3.008 9.22 3.51 3.035.457 6.075.456 9.12.124.234-.025.473-.023.711-.029.036 0 .07.03.175.074v.61c-.033 5.644-.012 11.29-.12 16.933-.061 3.283-.352 6.56-1.553 9.672-.984 2.554-2.57 4.726-4.412 6.704-2.834 3.045-5.729 6.032-8.614 9.028-.166.172-.473.292-.715.294-2.992.02-5.984.017-8.974.003-.213 0-.488-.08-.628-.227-3.18-3.315-6.41-6.587-9.495-9.989C9.473 37.952 7.927 34 7.601 29.61a173.432 173.432 0 0 1-.455-9.369c-.078-3.9-.021-7.804-.021-11.706 0-.115.015-.23.024-.359zm32.8 38.517c1.104-1.219 2.118-2.305 3.094-3.424 1.936-2.22 3.632-4.592 4.643-7.397 1.058-2.94 1.44-6.009 1.497-9.093.127-6.655.116-13.313.153-19.97.005-.847-.503-1.335-1.35-1.275-.966.068-1.926.211-2.892.3-2.753.247-5.5.216-8.232-.242-3.338-.56-6.38-1.79-9.01-3.966-.463-.382-.978-.387-1.492-.076-.287.175-.568.36-.855.535-4.033 2.468-8.4 3.872-13.139 3.9-1.969.012-3.943-.242-5.908-.44-1.184-.12-1.728.282-1.736 1.47-.007 1.09-.012 2.18-.003 3.27.057 6.671-.23 13.353.52 20.006.366 3.253 1.228 6.355 2.955 9.18 1.51 2.466 3.441 4.588 5.405 6.686.138.148.272.298.49.537-1.914 0-3.675-.01-5.439.004-.83.006-1.4.537-1.381 1.238.016.688.556 1.16 1.368 1.195.138.006.278.002.416.002 2.3 0 4.598-.004 6.897.006.223.001.508.022.66.154.723.632 1.411 1.307 2.111 1.966l-.115.163c-.188.01-.376.026-.564.026-1.565.002-3.132.001-4.697.001-3.488 0-6.976.002-10.464-.002-.538 0-1.033.082-1.35.575-.258.4-.276.816-.037 1.234.308.54.818.634 1.377.634 16.033-.002 32.066 0 48.1-.003.953 0 1.512-.458 1.514-1.215.003-.757-.559-1.213-1.508-1.223H35.334c.258-.274.39-.42.53-.56.57-.577 1.05-1.37 1.74-1.663.692-.292 1.597-.09 2.408-.092 1.724-.005 3.45.01 5.174-.007.824-.007 1.34-.487 1.352-1.192.013-.727-.52-1.215-1.37-1.24-.396-.01-.792-.002-1.188-.002h-4.03z"/><path fill="none" stroke="#214578" stroke-linecap="round" stroke-linejoin="round" stroke-miterlimit="20" stroke-width=".37" d="M7.15 8.175c1.128.075 2.226.17 3.325.22 5.625.253 10.863-1.072 15.702-3.934.6-.354.975-.352 1.547.054 2.764 1.96 5.891 3.008 9.22 3.51 3.035.457 6.075.456 9.12.124.234-.025.473-.023.711-.029.036 0 .07.03.175.074v.61c-.033 5.644-.012 11.29-.12 16.933-.061 3.283-.352 6.56-1.553 9.672-.984 2.554-2.57 4.726-4.412 6.704-2.834 3.045-5.729 6.032-8.614 9.028-.166.172-.473.292-.715.294-2.992.02-5.984.017-8.974.003-.213 0-.488-.08-.628-.227-3.18-3.315-6.41-6.587-9.495-9.989C9.473 37.952 7.927 34 7.601 29.61a173.432 173.432 0 0 1-.455-9.369c-.078-3.9-.021-7.804-.021-11.706 0-.115.015-.23.024-.359zm32.8 38.517c1.104-1.219 2.118-2.305 3.094-3.424 1.936-2.22 3.632-4.592 4.643-7.397 1.058-2.94 1.44-6.009 1.497-9.093.127-6.655.116-13.313.153-19.97.005-.847-.503-1.335-1.35-1.275-.966.068-1.926.211-2.892.3-2.753.247-5.5.216-8.232-.242-3.338-.56-6.38-1.79-9.01-3.966-.463-.382-.978-.387-1.492-.076-.287.175-.568.36-.855.535-4.033 2.468-8.4 3.872-13.139 3.9-1.969.012-3.943-.242-5.908-.44-1.184-.12-1.728.282-1.736 1.47-.007 1.09-.012 2.18-.003 3.27.057 6.671-.23 13.353.52 20.006.366 3.253 1.228 6.355 2.955 9.18 1.51 2.466 3.441 4.588 5.405 6.686.138.148.272.298.49.537-1.914 0-3.675-.01-5.439.004-.83.006-1.4.537-1.381 1.238.016.688.556 1.16 1.368 1.195.138.006.278.002.416.002 2.3 0 4.598-.004 6.897.006.223.001.508.022.66.154.723.632 1.411 1.307 2.111 1.966l-.115.163c-.188.01-.376.026-.564.026-1.565.002-3.132.001-4.697.001-3.488 0-6.976.002-10.464-.002-.538 0-1.033.082-1.35.575-.258.4-.276.816-.037 1.234.308.54.818.634 1.377.634 16.033-.002 32.066 0 48.1-.003.953 0 1.512-.458 1.514-1.215.003-.757-.559-1.213-1.508-1.223H35.334c.258-.274.39-.42.53-.56.57-.577 1.05-1.37 1.74-1.663.692-.292 1.597-.09 2.408-.092 1.724-.005 3.45.01 5.174-.007.824-.007 1.34-.487 1.352-1.192.013-.727-.52-1.215-1.37-1.24-.396-.01-.792-.002-1.188-.002h-4.03z"/></g><g><path fill="#fff" d="M40.784 13.996c-3.169.331-6.239.27-9.25-.62-1.49-.44-2.888-1.08-4.16-1.975-.276-.195-.478-.236-.787-.053-3.59 2.123-7.484 3.041-11.64 2.836-1.026-.05-2.047-.208-3.064-.357-.704-.103-1.136-.694-1.058-1.349.078-.658.622-1.083 1.36-1.018.846.074 1.687.207 2.534.273 4.04.316 7.767-.647 11.2-2.78 1.09-.677 1.298-.666 2.32.111 1.94 1.476 4.158 2.24 6.555 2.534 2.295.283 4.582.14 6.87-.116 1.107-.125 1.601.342 1.594 1.442-.029 4.834-.014 9.668-.125 14.5-.069 3.022-.474 6.02-2.153 8.642a29.09 29.09 0 0 1-2.83 3.73c-1.973 2.194-4.045 4.3-6.077 6.441-.36.381-.813.678-1.313.416-.344-.18-.757-.549-.813-.887-.06-.372.15-.9.421-1.195 1.625-1.76 3.32-3.458 4.956-5.21a51.56 51.56 0 0 0 2.561-2.967c1.813-2.258 2.67-4.909 2.756-7.749.145-4.73.132-9.464.184-14.197.001-.135-.024-.269-.04-.452z"/><path fill="none" stroke="#214578" stroke-linecap="round" stroke-linejoin="round" stroke-miterlimit="20" stroke-width=".37" d="M40.784 13.996c-3.169.331-6.239.27-9.25-.62-1.49-.44-2.888-1.08-4.16-1.975-.276-.195-.478-.236-.787-.053-3.59 2.123-7.484 3.041-11.64 2.836-1.026-.05-2.047-.208-3.064-.357-.704-.103-1.136-.694-1.058-1.349.078-.658.622-1.083 1.36-1.018.846.074 1.687.207 2.534.273 4.04.316 7.767-.647 11.2-2.78 1.09-.677 1.298-.666 2.32.111 1.94 1.476 4.158 2.24 6.555 2.534 2.295.283 4.582.14 6.87-.116 1.107-.125 1.601.342 1.594 1.442-.029 4.834-.014 9.668-.125 14.5-.069 3.022-.474 6.02-2.153 8.642a29.09 29.09 0 0 1-2.83 3.73c-1.973 2.194-4.045 4.3-6.077 6.441-.36.381-.813.678-1.313.416-.344-.18-.757-.549-.813-.887-.06-.372.15-.9.421-1.195 1.625-1.76 3.32-3.458 4.956-5.21a51.56 51.56 0 0 0 2.561-2.967c1.813-2.258 2.67-4.909 2.756-7.749.145-4.73.132-9.464.184-14.197.001-.135-.024-.269-.04-.452z"/></g><g><path fill="#fff" d="M27.79 35.555c-.015.148-.242.344-.408.384-.1.025-.362-.203-.37-.329-.012-.158.164-.328.332-.619.223.267.457.426.446.564zm-.444 2.806c1.603.01 2.858-1.204 2.864-2.77.006-1.578-1.232-2.822-2.816-2.83-1.569-.008-2.846 1.254-2.844 2.811a2.799 2.799 0 0 0 2.796 2.79z"/><path fill="none" stroke="#214578" stroke-linecap="round" stroke-linejoin="round" stroke-miterlimit="20" stroke-width=".37" d="M27.79 35.555c-.015.148-.242.344-.408.384-.1.025-.362-.203-.37-.329-.012-.158.164-.328.332-.619.223.267.457.426.446.564zm-.444 2.806c1.603.01 2.858-1.204 2.864-2.77.006-1.578-1.232-2.822-2.816-2.83-1.569-.008-2.846 1.254-2.844 2.811a2.799 2.799 0 0 0 2.796 2.79z"/></g></g></g></svg>