<svg xmlns="http://www.w3.org/2000/svg" width="60" height="85" viewBox="0 0 60 85"><defs><linearGradient id="hyo3a" x1="97.92" x2="-2.11" y1="-42.84" y2="75.4" gradientUnits="userSpaceOnUse"><stop offset=".2" stop-color="#214578"/><stop offset=".37" stop-color="#2f6095"/><stop offset=".64" stop-color="#4387bd"/><stop offset=".86" stop-color="#50a0d6"/><stop offset=".99" stop-color="#55a9e0"/></linearGradient></defs><g><g><path fill="url(#hyo3a)" d="M.146 16.544v52.56c0 8.402 6.812 15.214 15.216 15.214h28.685c8.403 0 15.215-6.812 15.215-15.215V16.544c0-.173-.02-15.499-.026-15.67H.172C.166 1.044.146 16.37.146 16.543z"/></g><g><path fill="#fff" d="M48.523 41.92c-1.406-2.805-3.777-4.116-6.853-4.152-3.595-.043-7.194-.097-10.785.023-2.078.07-2.776-1.46-2.116-3.01.754-1.772 1.436-3.576 2.122-5.377 1.014-2.662.656-5.128-1.183-7.32-1.167-1.39-2.239-1.39-3.527-.106-4.01 4.001-7.92 8.111-12.074 11.958-2.788 2.581-4.195 5.475-3.857 9.287.056.626.075 2.895.077 5.665 4.161-.037 8.322-.076 12.485-.109.254-.002.402-.07.537-.303 2.583-4.418 8.514-5.908 12.892-3.242.405.247.792.525 1.187.79.405.396.808.792 1.212 1.19.035.064.069.131.107.195.42.68.865 1.347 1.254 2.046.252.451.132 1.002-.249 1.222a1.781 1.781 0 0 1-.823.232c-2.23.038-4.46.047-6.69.078-.138.002-.33.075-.4.18-.475.71-.923 1.44-1.387 2.172.476.723.938 1.443 1.425 2.146.072.103.267.173.403.172 1.937-.006 3.873-.027 5.81-.044.38-.003.764-.025 1.141.001.726.05 1.134.704.873 1.38-.099.251-.21.501-.35.732-.325.536-.669 1.06-1.005 1.59l-1.19 1.21c-.372.258-.738.531-1.12.772-3.243 2.04-7.326 1.934-10.473-.279a9.001 9.001 0 0 1-2.51-2.663c-.152-.245-.31-.324-.595-.32-4.188.043-8.377.08-12.565.12-.01 2.087-.02 3.681-.015 4.13.044 4.29 3.403 7.218 6.734 7.204l21.484-.016c3.901-.208 6.684-2.354 7.533-7.382l3.176-16.829c-.001-1.156-.166-2.307-.685-3.344z"/></g></g></svg>