<svg xmlns="http://www.w3.org/2000/svg" width="64" height="59" viewBox="0 0 64 59"><g><g><g><path fill="#fff" d="M47.334 22.083c-.38 2.15-2.329 3.886-4.368 4.204V16.95h4.714c-.106 1.758-.055 3.476-.346 5.133zM19.41 26.287c-2.222-.358-4.294-2.458-4.488-4.72-.13-1.509-.025-3.038-.025-4.608h4.513v9.328zm4.782 16.421h13.978v3.407H24.193zM42.84 51.96H19.554v-3.392H42.84zM28.865 40.237c0-.876-.016-1.74.005-2.602.018-.75-.308-1.192-1.009-1.488-3.875-1.637-5.92-4.596-6.007-8.786-.088-4.139-.02-8.28-.02-12.422.001-.115.024-.229.043-.396h.665c3.625 0 7.25.003 10.875-.003 1.016 0 1.605-.895 1.148-1.727-.282-.514-.756-.64-1.308-.638-3.566.007-7.131.003-10.698.003h-.685v-2.25h18.678v.574c0 5.548.012 11.096-.004 16.644-.012 4.212-2.203 7.448-6.098 9.037-.635.26-.938.68-.931 1.355.007.888.002 1.775.002 2.7zm-9.41-25.693h-.694c-1.644 0-3.289-.002-4.933.001-.93.002-1.388.443-1.394 1.378-.01 1.606-.028 3.211.005 4.816.078 3.88 2.883 7.247 6.61 7.925.4.072.522.24.583.585.705 4 2.878 6.907 6.5 8.741.139.07.325.228.331.353.034.624.016 1.251.016 1.931h-.665c-.852 0-1.704-.01-2.556.003-1.014.016-1.446.457-1.45 1.457-.004.813 0 1.625 0 2.438v1.99c-1.205 0-2.332-.013-3.457.003-.757.011-1.176.428-1.199 1.18-.02.653-.007 1.307-.007 1.961v2.7c-.454 0-.828-.015-1.2.002-.649.03-1.13.513-1.153 1.131-.021.607.437 1.14 1.066 1.222.176.023.356.012.536.012l29.6.001c.14 0 .278.005.416-.004.703-.05 1.207-.579 1.182-1.234-.025-.64-.523-1.109-1.215-1.13-.367-.01-.733-.002-1.137-.002 0-1.042-.01-1.99.003-2.939.042-2.967.064-2.956-2.877-2.908-.587.01-1.173.002-1.789.002 0-1.557.006-3.022 0-4.488-.005-.9-.437-1.352-1.337-1.392-.454-.02-.91-.005-1.366-.005H35.9c0-.673-.026-1.247.017-1.816.012-.165.19-.364.344-.464.581-.374 1.217-.668 1.772-1.074 2.576-1.886 4.157-4.405 4.696-7.56.07-.405.194-.6.668-.714 3.338-.796 5.636-2.847 6.268-6.22.413-2.208.232-4.532.254-6.805.006-.682-.539-1.069-1.25-1.075-.972-.007-1.942-.002-2.914-.002H42.93v-.71c0-1.645.01-3.29-.004-4.934-.008-.9-.447-1.375-1.275-1.376-6.974-.005-13.949-.005-20.922 0-.76.001-1.212.435-1.263 1.204-.03.474-.01.951-.01 1.427v4.39z"/><path fill="none" stroke="#214578" stroke-miterlimit="20" stroke-width=".37" d="M47.334 22.083c-.38 2.15-2.329 3.886-4.368 4.204V16.95h4.714c-.106 1.758-.055 3.476-.346 5.133zM19.41 26.287c-2.222-.358-4.294-2.458-4.488-4.72-.13-1.509-.025-3.038-.025-4.608h4.513v9.328zm4.782 16.421h13.978v3.407H24.193zM42.84 51.96H19.554v-3.392H42.84zM28.865 40.237c0-.876-.016-1.74.005-2.602.018-.75-.308-1.192-1.009-1.488-3.875-1.637-5.92-4.596-6.007-8.786-.088-4.139-.02-8.28-.02-12.422.001-.115.024-.229.043-.396h.665c3.625 0 7.25.003 10.875-.003 1.016 0 1.605-.895 1.148-1.727-.282-.514-.756-.64-1.308-.638-3.566.007-7.131.003-10.698.003h-.685v-2.25h18.678v.574c0 5.548.012 11.096-.004 16.644-.012 4.212-2.203 7.448-6.098 9.037-.635.26-.938.68-.931 1.355.007.888.002 1.775.002 2.7zm-9.41-25.693h-.694c-1.644 0-3.289-.002-4.933.001-.93.002-1.388.443-1.394 1.378-.01 1.606-.028 3.211.005 4.816.078 3.88 2.883 7.247 6.61 7.925.4.072.522.24.583.585.705 4 2.878 6.907 6.5 8.741.139.07.325.228.331.353.034.624.016 1.251.016 1.931h-.665c-.852 0-1.704-.01-2.556.003-1.014.016-1.446.457-1.45 1.457-.004.813 0 1.625 0 2.438v1.99c-1.205 0-2.332-.013-3.457.003-.757.011-1.176.428-1.199 1.18-.02.653-.007 1.307-.007 1.961v2.7c-.454 0-.828-.015-1.2.002-.649.03-1.13.513-1.153 1.131-.021.607.437 1.14 1.066 1.222.176.023.356.012.536.012l29.6.001c.14 0 .278.005.416-.004.703-.05 1.207-.579 1.182-1.234-.025-.64-.523-1.109-1.215-1.13-.367-.01-.733-.002-1.137-.002 0-1.042-.01-1.99.003-2.939.042-2.967.064-2.956-2.877-2.908-.587.01-1.173.002-1.789.002 0-1.557.006-3.022 0-4.488-.005-.9-.437-1.352-1.337-1.392-.454-.02-.91-.005-1.366-.005H35.9c0-.673-.026-1.247.017-1.816.012-.165.19-.364.344-.464.581-.374 1.217-.668 1.772-1.074 2.576-1.886 4.157-4.405 4.696-7.56.07-.405.194-.6.668-.714 3.338-.796 5.636-2.847 6.268-6.22.413-2.208.232-4.532.254-6.805.006-.682-.539-1.069-1.25-1.075-.972-.007-1.942-.002-2.914-.002H42.93v-.71c0-1.645.01-3.29-.004-4.934-.008-.9-.447-1.375-1.275-1.376-6.974-.005-13.949-.005-20.922 0-.76.001-1.212.435-1.263 1.204-.03.474-.01.951-.01 1.427v4.39z"/></g><g><path fill="#fff" d="M56.913 28.01c0 .952-.79 1.753-1.725 1.751-.916-.002-1.746-.832-1.75-1.75-.002-.939.791-1.722 1.75-1.724.98 0 1.727.743 1.725 1.723zm2.378.067a4.073 4.073 0 0 0-3.989-4.162 4.123 4.123 0 0 0-4.234 3.996c-.068 2.222 1.796 4.17 4.037 4.217 2.256.05 4.135-1.77 4.186-4.05z"/><path fill="none" stroke="#214578" stroke-miterlimit="20" stroke-width=".37" d="M56.913 28.01c0 .952-.79 1.753-1.725 1.751-.916-.002-1.746-.832-1.75-1.75-.002-.939.791-1.722 1.75-1.724.98 0 1.727.743 1.725 1.723zm2.378.067a4.073 4.073 0 0 0-3.989-4.162 4.123 4.123 0 0 0-4.234 3.996c-.068 2.222 1.796 4.17 4.037 4.217 2.256.05 4.135-1.77 4.186-4.05z"/></g><g><path fill="#fff" d="M7.786 33.27a1.162 1.162 0 0 1 1.14-1.135 1.144 1.144 0 0 1 1.175 1.148 1.134 1.134 0 0 1-1.13 1.131c-.656.01-1.19-.507-1.185-1.145zm4.7.021c.014-1.924-1.574-3.52-3.507-3.526-1.977-.005-3.579 1.578-3.568 3.526.011 1.93 1.595 3.494 3.538 3.494a3.522 3.522 0 0 0 3.537-3.494z"/><path fill="none" stroke="#214578" stroke-miterlimit="20" stroke-width=".37" d="M7.786 33.27a1.162 1.162 0 0 1 1.14-1.135 1.144 1.144 0 0 1 1.175 1.148 1.134 1.134 0 0 1-1.13 1.131c-.656.01-1.19-.507-1.185-1.145zm4.7.021c.014-1.924-1.574-3.52-3.507-3.526-1.977-.005-3.579 1.578-3.568 3.526.011 1.93 1.595 3.494 3.538 3.494a3.522 3.522 0 0 0 3.537-3.494z"/></g><g><path fill="#fff" d="M13.18 6.278c.14.221.411.46.386.66-.026.208-.34.38-.528.568-.179-.194-.479-.376-.5-.587-.02-.2.25-.429.394-.646l.247.005zm-3.056.575a2.951 2.951 0 0 0 2.845 3.032c1.56.058 2.97-1.263 3.003-2.815.038-1.71-1.242-3.073-2.905-3.09-1.579-.017-2.906 1.28-2.943 2.873z"/><path fill="none" stroke="#214578" stroke-miterlimit="20" stroke-width=".37" d="M13.18 6.278c.14.221.411.46.386.66-.026.208-.34.38-.528.568-.179-.194-.479-.376-.5-.587-.02-.2.25-.429.394-.646l.247.005zm-3.056.575a2.951 2.951 0 0 0 2.845 3.032c1.56.058 2.97-1.263 3.003-2.815.038-1.71-1.242-3.073-2.905-3.09-1.579-.017-2.906 1.28-2.943 2.873z"/></g><g><path fill="#fff" d="M12.47 42.638c-1.205 0-2.41.02-3.615-.008-.584-.013-.949-.385-1.062-.945-.105-.513.097-.944.55-1.209.195-.115.447-.187.673-.189a426.24 426.24 0 0 1 6.878 0c.78.01 1.274.531 1.261 1.207-.013.678-.504 1.144-1.306 1.161-1.126.025-2.253.007-3.379.007z"/><path fill="none" stroke="#214578" stroke-miterlimit="20" stroke-width=".37" d="M12.47 42.638c-1.205 0-2.41.02-3.615-.008-.584-.013-.949-.385-1.062-.945-.105-.513.097-.944.55-1.209.195-.115.447-.187.673-.189a426.24 426.24 0 0 1 6.878 0c.78.01 1.274.531 1.261 1.207-.013.678-.504 1.144-1.306 1.161-1.126.025-2.253.007-3.379.007z"/></g><g><path fill="#fff" d="M49.92 42.636c-1.206 0-2.412.028-3.615-.01-.596-.02-1.012-.46-1.067-1.008-.056-.55.181-.964.677-1.204.17-.084.38-.129.57-.13 2.293-.008 4.585-.022 6.877.004.78.01 1.265.535 1.248 1.216-.017.661-.488 1.128-1.253 1.147-1.145.03-2.292.008-3.438.008z"/><path fill="none" stroke="#214578" stroke-miterlimit="20" stroke-width=".37" d="M49.92 42.636c-1.206 0-2.412.028-3.615-.01-.596-.02-1.012-.46-1.067-1.008-.056-.55.181-.964.677-1.204.17-.084.38-.129.57-.13 2.293-.008 4.585-.022 6.877.004.78.01 1.265.535 1.248 1.216-.017.661-.488 1.128-1.253 1.147-1.145.03-2.292.008-3.438.008z"/></g><g><path fill="#fff" d="M8.363 43.8c.931 0 1.861-.006 2.792.002.764.007 1.303.483 1.323 1.153.02.686-.537 1.21-1.322 1.213-1.86.008-3.722.007-5.582 0-.783-.003-1.344-.528-1.323-1.212.02-.666.56-1.147 1.321-1.154.931-.008 1.861-.002 2.791-.002z"/><path fill="none" stroke="#214578" stroke-miterlimit="20" stroke-width=".37" d="M8.363 43.8c.931 0 1.861-.006 2.792.002.764.007 1.303.483 1.323 1.153.02.686-.537 1.21-1.322 1.213-1.86.008-3.722.007-5.582 0-.783-.003-1.344-.528-1.323-1.212.02-.666.56-1.147 1.321-1.154.931-.008 1.861-.002 2.791-.002z"/></g><g><path fill="#fff" d="M53.974 46.171c-.91 0-1.82.005-2.73-.002-.792-.007-1.348-.513-1.338-1.199.01-.666.553-1.164 1.308-1.167 1.861-.008 3.723-.007 5.582 0 .792.002 1.349.511 1.336 1.197-.01.69-.56 1.164-1.366 1.17-.93.005-1.86.001-2.792.001z"/><path fill="none" stroke="#214578" stroke-miterlimit="20" stroke-width=".37" d="M53.974 46.171c-.91 0-1.82.005-2.73-.002-.792-.007-1.348-.513-1.338-1.199.01-.666.553-1.164 1.308-1.167 1.861-.008 3.723-.007 5.582 0 .792.002 1.349.511 1.336 1.197-.01.69-.56 1.164-1.366 1.17-.93.005-1.86.001-2.792.001z"/></g><g><path fill="#fff" d="M55.792 16.875c.006.62-.538 1.184-1.16 1.202-.642.02-1.21-.554-1.203-1.21.01-.654.515-1.145 1.18-1.144.657.002 1.178.508 1.183 1.152z"/><path fill="none" stroke="#214578" stroke-miterlimit="20" stroke-width=".37" d="M55.792 16.875c.006.62-.538 1.184-1.16 1.202-.642.02-1.21-.554-1.203-1.21.01-.654.515-1.145 1.18-1.144.657.002 1.178.508 1.183 1.152z"/></g><g><path fill="#fff" d="M46.412 6.365a1.18 1.18 0 0 1 1.137-1.204c.644-.02 1.231.556 1.222 1.198-.008.631-.55 1.162-1.187 1.164a1.156 1.156 0 0 1-1.172-1.158z"/><path fill="none" stroke="#214578" stroke-miterlimit="20" stroke-width=".37" d="M46.412 6.365a1.18 1.18 0 0 1 1.137-1.204c.644-.02 1.231.556 1.222 1.198-.008.631-.55 1.162-1.187 1.164a1.156 1.156 0 0 1-1.172-1.158z"/></g><g><path fill="#fff" d="M7.796 21.564c.648.008 1.16.53 1.158 1.178a1.191 1.191 0 0 1-1.163 1.184c-.646.008-1.218-.574-1.199-1.219a1.197 1.197 0 0 1 1.204-1.143z"/><path fill="none" stroke="#214578" stroke-miterlimit="20" stroke-width=".37" d="M7.796 21.564c.648.008 1.16.53 1.158 1.178a1.191 1.191 0 0 1-1.163 1.184c-.646.008-1.218-.574-1.199-1.219a1.197 1.197 0 0 1 1.204-1.143z"/></g><g><path fill="#fff" d="M47.57 35.611c-.665-.006-1.158-.5-1.158-1.163 0-.64.522-1.179 1.154-1.188.643-.009 1.226.578 1.206 1.215a1.174 1.174 0 0 1-1.203 1.136z"/><path fill="none" stroke="#214578" stroke-miterlimit="20" stroke-width=".37" d="M47.57 35.611c-.665-.006-1.158-.5-1.158-1.163 0-.64.522-1.179 1.154-1.188.643-.009 1.226.578 1.206 1.215a1.174 1.174 0 0 1-1.203 1.136z"/></g><g><path fill="#fff" d="M8.955 11.047a1.158 1.158 0 0 1-1.179 1.151 1.176 1.176 0 0 1-1.185-1.154 1.198 1.198 0 0 1 1.218-1.19 1.181 1.181 0 0 1 1.146 1.193z"/><path fill="none" stroke="#214578" stroke-miterlimit="20" stroke-width=".37" d="M8.955 11.047a1.158 1.158 0 0 1-1.179 1.151 1.176 1.176 0 0 1-1.185-1.154 1.198 1.198 0 0 1 1.218-1.19 1.181 1.181 0 0 1 1.146 1.193z"/></g><g><path fill="#fff" d="M19.496 42.642a1.154 1.154 0 0 1-1.18-1.145 1.167 1.167 0 0 1 1.19-1.202 1.185 1.185 0 0 1 1.16 1.182 1.17 1.17 0 0 1-1.17 1.165z"/><path fill="none" stroke="#214578" stroke-miterlimit="20" stroke-width=".37" d="M19.496 42.642a1.154 1.154 0 0 1-1.18-1.145 1.167 1.167 0 0 1 1.19-1.202 1.185 1.185 0 0 1 1.16 1.182 1.17 1.17 0 0 1-1.17 1.165z"/></g><g><path fill="#fff" d="M42.82 42.637a1.158 1.158 0 0 1-1.095-1.228c.037-.646.58-1.14 1.221-1.112.672.03 1.162.587 1.116 1.268-.046.65-.58 1.111-1.242 1.072z"/><path fill="none" stroke="#214578" stroke-miterlimit="20" stroke-width=".37" d="M42.82 42.637a1.158 1.158 0 0 1-1.095-1.228c.037-.646.58-1.14 1.221-1.112.672.03 1.162.587 1.116 1.268-.046.65-.58 1.111-1.242 1.072z"/></g><g><path fill="#fff" d="M30.11 23.566l1.088-.742 1.068.757-.466 1.228h-1.215zm1.081 3.813c.8.577 1.566 1.135 2.337 1.686.47.336.972.365 1.433.021.456-.339.604-.805.411-1.368-.248-.728-.455-1.47-.725-2.192-.148-.396-.1-.634.272-.875.63-.408 1.223-.874 1.83-1.318.47-.344.736-.775.548-1.377-.173-.556-.61-.85-1.276-.857-.772-.008-1.546-.019-2.318.005-.35.011-.527-.088-.627-.444-.202-.722-.456-1.43-.693-2.14-.243-.73-.59-1.017-1.21-1.01-.66.008-.99.403-1.17.986-.198.642-.439 1.271-.605 1.92-.133.516-.355.751-.934.696-.687-.065-1.385-.02-2.078-.014-.696.007-1.152.312-1.312.891-.167.604.116 1.027.59 1.365.578.415 1.135.864 1.734 1.248.396.254.51.502.33.958-.27.677-.453 1.388-.697 2.076-.203.572-.102 1.057.365 1.441.421.348.995.322 1.534-.06.742-.528 1.475-1.068 2.261-1.638z"/><path fill="none" stroke="#214578" stroke-miterlimit="20" stroke-width=".37" d="M30.11 23.566l1.088-.742 1.068.757-.466 1.228h-1.215zm1.081 3.813c.8.577 1.566 1.135 2.337 1.686.47.336.972.365 1.433.021.456-.339.604-.805.411-1.368-.248-.728-.455-1.47-.725-2.192-.148-.396-.1-.634.272-.875.63-.408 1.223-.874 1.83-1.318.47-.344.736-.775.548-1.377-.173-.556-.61-.85-1.276-.857-.772-.008-1.546-.019-2.318.005-.35.011-.527-.088-.627-.444-.202-.722-.456-1.43-.693-2.14-.243-.73-.59-1.017-1.21-1.01-.66.008-.99.403-1.17.986-.198.642-.439 1.271-.605 1.92-.133.516-.355.751-.934.696-.687-.065-1.385-.02-2.078-.014-.696.007-1.152.312-1.312.891-.167.604.116 1.027.59 1.365.578.415 1.135.864 1.734 1.248.396.254.51.502.33.958-.27.677-.453 1.388-.697 2.076-.203.572-.102 1.057.365 1.441.421.348.995.322 1.534-.06.742-.528 1.475-1.068 2.261-1.638z"/></g><g><path fill="#fff" d="M38.21 13.398a1.137 1.137 0 0 1-1.177 1.144c-.635-.006-1.179-.545-1.18-1.168-.002-.64.597-1.219 1.232-1.192a1.179 1.179 0 0 1 1.124 1.216z"/><path fill="none" stroke="#214578" stroke-miterlimit="20" stroke-width=".37" d="M38.21 13.398a1.137 1.137 0 0 1-1.177 1.144c-.635-.006-1.179-.545-1.18-1.168-.002-.64.597-1.219 1.232-1.192a1.179 1.179 0 0 1 1.124 1.216z"/></g></g></g></svg>