<svg xmlns="http://www.w3.org/2000/svg" width="18" height="17" viewBox="0 0 18 17"><g><g><g><path fill="#de213c" d="M9.39 15.971c-4.134-.036-7.426-3.349-7.415-7.449a7.41 7.41 0 0 1 7.447-7.41 7.408 7.408 0 0 1 7.407 7.433c-.005 4.127-3.33 7.408-7.439 7.426zM8.805.043c-.3.045-.6.08-.898.134a8.279 8.279 0 0 0-4.218 2.08C2.295 3.527 1.397 5.093 1.055 6.95c-.423 2.3.01 4.441 1.336 6.373 1.28 1.867 3.041 3.068 5.259 3.525 2.56.526 4.908-.015 6.976-1.62 1.734-1.348 2.775-3.13 3.161-5.292.047-.265.074-.535.11-.801V7.94c-.043-.299-.078-.6-.132-.897-.357-1.968-1.3-3.607-2.801-4.922C13.769 1.076 12.38.43 10.817.156 10.547.107 10.272.08 10 .043H8.805z"/></g><g><path fill="#de213c" d="M13.966 10.245c-.231.38-.452.75-.68 1.114-.022.032-.105.052-.149.04a21.583 21.583 0 0 1-.856-.252c-.211-.067-.388-.023-.577.095a9.892 9.892 0 0 1-.968.533c-.196.095-.322.224-.372.433-.065.272-.125.547-.199.818-.012.044-.083.104-.127.104-.426.007-.851.007-1.277 0-.043-.002-.111-.063-.123-.109-.072-.26-.136-.521-.193-.786-.049-.23-.184-.369-.396-.472a10.258 10.258 0 0 1-.953-.524c-.183-.114-.358-.158-.562-.096-.285.087-.57.173-.857.253-.046.012-.133.002-.152-.029-.232-.367-.456-.74-.687-1.12.222-.195.427-.388.647-.563.213-.17.295-.374.276-.65a8.591 8.591 0 0 1 .001-1.04c.011-.23-.053-.408-.228-.555-.23-.196-.457-.399-.696-.608.23-.38.454-.753.686-1.12.02-.03.105-.043.15-.03.288.079.573.164.858.252.205.062.38.02.563-.094.312-.193.636-.372.967-.532.2-.098.33-.232.38-.447.069-.3.141-.6.216-.917h.781c.188 0 .376.005.564-.003.106-.005.156.027.178.138.053.258.123.514.18.772.048.224.18.359.387.458.323.152.64.323.939.515.199.126.385.174.608.102.278-.087.559-.17.84-.247.045-.011.128.006.15.038.228.364.449.733.68 1.114-.212.186-.412.376-.628.546-.23.181-.318.395-.293.692.028.338.015.682-.003 1.022-.011.217.046.39.209.53.235.201.466.407.716.625zM5.622 4.55c-.443.021-.74.156-.935.467-.277.446-.552.892-.817 1.345-.24.41-.162.883.185 1.207.11.103.216.21.339.292.22.149.307.337.26.6a1.3 1.3 0 0 0 .006.348.277.277 0 0 1-.114.27c-.169.134-.33.28-.488.426-.332.305-.434.76-.218 1.146.277.495.57.985.887 1.456.233.347.592.472 1.003.384.263-.057.518-.152.78-.217a.36.36 0 0 1 .227.033c.202.1.401.208.592.328a.372.372 0 0 1 .147.193c.065.21.105.428.163.64a.97.97 0 0 0 .93.737c.554.011 1.107.011 1.66 0 .46-.008.818-.3.939-.747.06-.218.101-.44.163-.658a.292.292 0 0 1 .126-.152c.198-.12.4-.235.607-.336a.389.389 0 0 1 .242-.03c.219.051.433.125.651.187.461.132.908-.015 1.15-.396.288-.453.567-.91.835-1.374.233-.402.149-.875-.192-1.193-.102-.094-.2-.194-.314-.27-.235-.155-.34-.353-.287-.637.022-.113.006-.233-.004-.349a.248.248 0 0 1 .102-.24c.173-.139.338-.286.5-.437.34-.318.43-.777.202-1.177-.273-.48-.555-.956-.861-1.415-.236-.353-.597-.485-1.015-.395-.263.056-.517.153-.779.217a.36.36 0 0 1-.227-.034c-.202-.1-.401-.21-.592-.33a.372.372 0 0 1-.147-.192c-.065-.21-.104-.428-.163-.64-.121-.437-.479-.727-.931-.736a43.675 43.675 0 0 0-1.659 0c-.458.009-.82.302-.94.749-.057.211-.096.43-.16.64a.348.348 0 0 1-.142.177c-.168.105-.357.178-.519.292a.4.4 0 0 1-.398.054c-.286-.095-.58-.17-.794-.233z"/></g><g><path fill="#de213c" d="M9.407 7.476c.583.003 1.06.488 1.057 1.071A1.068 1.068 0 0 1 9.389 9.6a1.069 1.069 0 0 1-1.048-1.063c0-.584.482-1.063 1.066-1.06zM7.275 8.534a2.126 2.126 0 0 0 2.123 2.133c1.18 0 2.13-.948 2.132-2.125a2.124 2.124 0 0 0-2.123-2.13 2.124 2.124 0 0 0-2.132 2.122z"/></g></g></g></svg>